# xmcd
#
# Track frame offsets:
#	150
#	17460
#	32575
#	49172
#	64072
#	76805
#	93645
#	111637
#	130100
#	147407
#	162497
#	179097
#	193965
#	206665
#	223515
#	241452
#
# Disc length: 3466
#
# Revision: 1
# Processed by: cddbd v1.5.1PL0 Copyright (c) Steve Scherf et al.
# Submitted via: audiograbber 1.82.02
# Normalized: r0:DSETVAR1
#
DISCID=f10d8810
DTITLE=Various Artist - SC-2026
DYEAR=1900
DGENRE=Instrumental
TTITLE0=Jackson, Alan - Here In The Real World
TTITLE1=Travis, Randy - Whisper My Name
TTITLE2=Collie, Mark - Born To Love You
TTITLE3=Raye, Collin - In This Life
TTITLE4=Twitty, Conway - Hello Darlin'
TTITLE5=Alabama - The Closer You Get
TTITLE6=Price, Ray - For The Good Times
TTITLE7=Cyrus, Billy Ray - In The Heart Of A Woman
TTITLE8=Jackson, Alan - Here In The Real World
TTITLE9=Travis, Randy - Whisper My Name
TTITLE10=Collie, Mark - Born To Love You
TTITLE11=Raye, Collin - In This Life
TTITLE12=Twitty, Conway - Hello Darlin'
TTITLE13=Alabama - The Closer You Get
TTITLE14=Price, Ray - For The Good Times
TTITLE15=Cyrus, Billy Ray - In The Heart Of A Woman
EXTD=
EXTT0=
EXTT1=
EXTT2=
EXTT3=
EXTT4=
EXTT5=
EXTT6=
EXTT7=
EXTT8=
EXTT9=
EXTT10=
EXTT11=
EXTT12=
EXTT13=
EXTT14=
EXTT15=
PLAYORDER=
